<?xml version="1.0" encoding="UTF-8"?>
<svg version="1.1" xmlns="http://www.w3.org/2000/svg" width="1024" height="1024">
<path d="M0 0 C2.04703218 -0.00187225 4.09406401 -0.0041746 6.14109528 -0.00686532 C11.72118939 -0.01293823 17.30126841 -0.0128551 22.88136506 -0.01167095 C28.91693489 -0.0114658 34.95250002 -0.01699644 40.98806763 -0.02172852 C52.79457637 -0.03001016 64.60108136 -0.03279521 76.4075924 -0.03334089 C86.00799734 -0.03380171 95.60840067 -0.03586662 105.20880508 -0.03904152 C107.97939082 -0.03993915 110.74997655 -0.04082897 113.52056229 -0.0417164 C114.55391789 -0.04204797 114.55391789 -0.04204797 115.60814935 -0.04238624 C134.96421914 -0.04853346 154.32028837 -0.0524875 173.67635918 -0.05204296 C174.76925508 -0.05201959 174.76925508 -0.05201959 175.88422968 -0.05199575 C179.57648278 -0.05191265 183.26873588 -0.05181361 186.96098898 -0.05171105 C188.06079731 -0.05168113 188.06079731 -0.05168113 189.18282398 -0.05165061 C190.66554028 -0.05161017 192.14825659 -0.05156837 193.6309729 -0.05152521 C216.70061299 -0.05091244 239.77023838 -0.05842239 262.83987427 -0.07209778 C288.79885679 -0.08747985 314.75782966 -0.09606278 340.71681702 -0.09513456 C343.48803147 -0.09505993 346.25924591 -0.09501122 349.03046036 -0.09498024 C349.71273145 -0.09496859 350.39500255 -0.09495693 351.09794852 -0.09494492 C362.04391217 -0.09491424 372.98986297 -0.10128065 383.9358228 -0.1099125 C394.94684106 -0.11841578 405.95784299 -0.11918737 416.96886311 -0.11280318 C422.92563577 -0.10954654 428.8823622 -0.10945039 434.8391304 -0.11815643 C440.30315658 -0.1260599 445.76710016 -0.12455101 451.23112442 -0.1158723 C453.19662136 -0.11434578 455.16212459 -0.11612107 457.12761413 -0.12173238 C494.2662901 -0.2206494 526.0822318 6.98872001 553.81594849 33.25871277 C572.9694775 52.8985091 581.45298019 81.08367608 581.38208294 108.09325314 C581.38383598 108.95256208 581.38558901 109.81187103 581.38739517 110.69721964 C581.39203383 113.56636144 581.38959518 116.43545209 581.38716125 119.30459595 C581.38903031 121.38668438 581.39133139 123.46877246 581.39402658 125.55085999 C581.40013947 131.26497514 581.40001157 136.97907564 581.3988322 142.69319332 C581.39862806 148.85908348 581.4041483 155.02496896 581.40888977 161.19085693 C581.4171946 173.26951001 581.41995752 185.34815687 581.42050215 197.42681205 C581.42096209 207.2481454 581.4230225 217.06947717 581.42620277 226.89081001 C581.42710036 229.72024617 581.42799017 232.54968234 581.42887765 235.3791185 C581.4290987 236.08258155 581.42931975 236.78604461 581.42954749 237.51082472 C581.43570062 257.29484927 581.43964818 277.07887328 581.43920422 296.86289883 C581.43918864 297.60857804 581.43917306 298.35425726 581.43915701 299.12253281 C581.4390739 302.90172598 581.43897486 306.68091915 581.4388723 310.46011233 C581.43884238 311.58589962 581.43884238 311.58589962 581.43881186 312.73443008 C581.43877142 314.25217555 581.43872962 315.76992102 581.43868647 317.28766649 C581.4380741 340.88633847 581.4455736 364.48499607 581.45925903 388.08366394 C581.47463853 414.61427005 581.48322409 441.14486671 581.48229581 467.67547756 C581.48222118 470.50774292 581.48217248 473.34000828 581.48214149 476.17227364 C581.48212401 477.21828667 581.48212401 477.21828667 581.48210618 478.28543129 C581.48207548 489.48122725 581.48844674 500.67701067 581.49707376 511.87280291 C581.50557427 523.1379473 581.5063508 534.40307368 581.49996444 545.66822111 C581.49670574 551.76455725 581.496619 557.86084822 581.50531769 563.95718002 C581.51321259 569.54791802 581.51172083 575.13857525 581.50303356 580.72931135 C581.50150511 582.74213564 581.50328975 584.75496604 581.50889363 586.7677831 C581.59413383 619.58173552 576.98670959 651.73319178 554.25344849 677.13371277 C553.72493286 677.75632996 553.19641724 678.37894714 552.65188599 679.02043152 C533.9657869 699.57514051 503.21802291 708.6523977 476.49750756 710.04137088 C468.88440826 710.35464603 461.258164 710.27404776 453.64024353 710.26742554 C451.58327575 710.26929698 449.52630833 710.27159901 447.46934146 710.27429086 C441.85245457 710.28037397 436.23558265 710.28027941 430.61869323 710.27909648 C424.54694065 710.27889159 418.47519275 710.28441961 412.40344238 710.28915405 C400.5214594 710.29744177 388.63948123 710.30022103 376.7574961 710.30076643 C367.09507632 710.30122704 357.43265814 710.30329092 347.77023888 710.30646706 C344.98285363 710.30736468 342.19546839 710.30825449 339.40808314 710.30914193 C338.36848155 710.30947351 338.36848155 710.30947351 337.30787791 710.30981178 C317.82963825 710.31596062 298.35139913 710.31991288 278.87315845 710.3194685 C278.13970579 710.31945292 277.40625313 710.31943734 276.65057463 710.31942129 C272.93363819 710.31933819 269.21670175 710.31923915 265.49976531 710.31913658 C264.76164747 710.31911664 264.02352962 710.31909669 263.26304456 710.31907614 C261.77039258 710.3190357 260.27774061 710.31899391 258.78508864 710.31895075 C235.56807407 710.31833816 212.35107411 710.32584376 189.13406372 710.33952332 C163.01357688 710.35490749 136.89309964 710.36348815 110.77260798 710.36256009 C107.98365096 710.36248547 105.19469394 710.36243676 102.40573692 710.36240578 C101.7190908 710.36239412 101.03244467 710.36238247 100.32499109 710.36237046 C89.31030741 710.36233978 78.29563648 710.36870547 67.28095658 710.37733804 C56.19798436 710.38584409 45.11502695 710.38661091 34.03205226 710.38022872 C28.03668965 710.37697325 22.04137297 710.37687158 16.04601479 710.38558197 C10.54546503 710.39349093 5.04499727 710.39197104 -0.45555059 710.38329784 C-2.43323808 710.38177249 -4.41093183 710.38354208 -6.38861194 710.38915791 C-16.12832931 710.41495781 -25.76572418 710.19603737 -35.46518421 709.25497913 C-36.25575666 709.17903496 -37.04632911 709.10309079 -37.8608583 709.02484528 C-62.21138255 706.39813466 -84.26975774 696.3221106 -101.74655151 679.13371277 C-102.50709839 678.38605652 -103.26764526 677.63840027 -104.05123901 676.86808777 C-116.42215854 663.9406909 -124.07189013 647.43632648 -128.49655151 630.25871277 C-128.79480835 629.11076233 -128.79480835 629.11076233 -129.09909058 627.93962097 C-132.66094949 613.17134745 -133.03765876 598.4611429 -133.0005188 583.36228943 C-133.00282752 581.3003331 -133.0060068 579.23837759 -133.00997329 577.17642379 C-133.01827361 571.55037608 -133.01421776 565.92439677 -133.00800085 560.2983489 C-133.00345765 554.21502325 -133.01046944 548.13170898 -133.01596069 542.04838562 C-133.0243249 530.83260855 -133.02362141 519.61685322 -133.01813776 508.40107662 C-133.01309493 498.03519674 -133.01179867 487.66932477 -133.01418304 477.30344391 C-133.01433581 476.61427285 -133.01448858 475.92510179 -133.01464598 475.21504675 C-133.01526873 472.41701893 -133.01590553 469.61899112 -133.01656551 466.8209633 C-133.02267639 440.60030184 -133.01714839 414.37965412 -133.00637172 388.15899478 C-132.99688555 364.90153663 -132.99772704 341.6441004 -133.0072937 318.38664246 C-133.01802195 292.21816985 -133.02223869 266.04970938 -133.01606917 239.88123488 C-133.01542781 237.08723816 -133.01480212 234.29324142 -133.01418304 231.49924469 C-133.01402489 230.81136192 -133.01386673 230.12347914 -133.01370379 229.41475143 C-133.01143625 219.06224132 -133.01407562 208.70974003 -133.01914215 198.35723114 C-133.02488051 186.57369112 -133.02319819 174.79017198 -133.01258066 163.00663355 C-133.00734673 157.00113955 -133.00522806 150.99568984 -133.01187897 144.99019623 C-133.01788826 139.48043141 -133.01448212 133.97075146 -133.00392386 128.46099421 C-133.00171072 126.47997311 -133.00277847 124.49894467 -133.00767544 122.51792839 C-133.08033181 90.65239566 -128.99311141 61.33712187 -107.74655151 36.13371277 C-107.04787964 35.21332214 -106.34920776 34.29293152 -105.62936401 33.34465027 C-105.00803589 32.61504089 -104.38670776 31.88543152 -103.74655151 31.13371277 C-103.08655151 31.13371277 -102.42655151 31.13371277 -101.74655151 31.13371277 C-101.74655151 30.47371277 -101.74655151 29.81371277 -101.74655151 29.13371277 C-72.83631315 2.67349461 -37.3935066 -0.03280189 0 0 Z " fill="#000000" transform="translate(287.7465515136719,156.8662872314453)"/>
<path d="M0 0 C39.27 0 78.54 0 119 0 C128.15690097 22.89225242 128.15690097 22.89225242 132.1184082 33.88745117 C134.01832738 39.14861585 135.93073891 44.40516216 137.84765625 49.66015625 C138.18828598 50.59406693 138.52891571 51.5279776 138.87986755 52.4901886 C142.62749127 62.74639382 146.46713933 72.96762761 150.3125 83.1875 C158.0313013 103.70990627 165.68253851 124.25694293 173.3125 144.8125 C173.58254978 145.53999325 173.85259956 146.2674865 174.13083267 147.01702499 C176.50082493 153.40167652 178.87043457 159.78646998 181.23954773 166.17144775 C189.31662237 187.93990497 197.39772632 209.70687007 205.5010376 231.46557617 C210.46290436 244.79008912 215.41648962 258.11765215 220.359375 271.44921875 C220.59173166 272.07589762 220.82408833 272.70257648 221.0634861 273.34824562 C222.26197111 276.58065231 223.46041164 279.8130755 224.65884399 283.04550171 C225.14756225 284.36366796 225.63628092 285.68183406 226.125 287 C226.3679266 287.6552277 226.6108532 288.3104554 226.8611412 288.98553848 C233.82755777 307.77499888 240.81201981 326.55758403 247.81872559 345.33206177 C251.420843 354.98474379 255.02000295 364.63852893 258.6182251 374.29266357 C259.55883508 376.81634356 260.49954246 379.33998705 261.44036865 381.86358643 C264.30587994 389.55048758 267.16753442 397.23880752 270.02432251 404.92895508 C270.91930705 407.33661091 271.81543159 409.74384332 272.71273804 412.15063477 C273.94436147 415.45476535 275.1719305 418.76037366 276.3984375 422.06640625 C276.76599655 423.04976456 277.1335556 424.03312286 277.51225281 425.04627991 C277.84255997 425.93923264 278.17286713 426.83218536 278.51318359 427.75219727 C278.80212494 428.52910416 279.09106628 429.30601105 279.38876343 430.10646057 C280 432 280 432 280 434 C246.67 434 213.34 434 179 434 C174.71 421.79 170.42 409.58 166 397 C164.42605469 392.52179688 162.85210938 388.04359375 161.23046875 383.4296875 C159.16992188 377.54296875 159.16992188 377.54296875 158.18334961 374.72021484 C157.49792886 372.76191785 156.8106471 370.80427156 156.12182617 368.84716797 C155.09117475 365.91784904 154.06642246 362.98652762 153.04296875 360.0546875 C152.73376999 359.18004852 152.42457123 358.30540955 152.10600281 357.40426636 C151.82763077 356.60296295 151.54925873 355.80165955 151.26245117 354.97607422 C151.01742355 354.27715057 150.77239594 353.57822693 150.51994324 352.85812378 C150 351 150 351 150 348 C89.94 348.33 29.88 348.66 -32 349 C-38.27 368.14 -44.54 387.28 -51 407 C-53.97 415.91 -56.94 424.82 -60 434 C-93.99 434 -127.98 434 -163 434 C-159.62517062 422.75056874 -159.62517062 422.75056874 -157.96069336 418.36010742 C-157.58334549 417.35960861 -157.20599762 416.3591098 -156.81721497 415.32829285 C-156.41218246 414.26476089 -156.00714996 413.20122894 -155.58984375 412.10546875 C-155.15439743 410.95359573 -154.71895111 409.80172272 -154.27030945 408.61494446 C-153.32529097 406.11640704 -152.3790758 403.61836425 -151.4307251 401.12109375 C-149.90729092 397.10935505 -148.38856784 393.09584302 -146.87060547 389.08203125 C-145.25826302 384.81925819 -143.64562755 380.55659731 -142.03143311 376.29452515 C-138.10842278 365.93585693 -134.19688221 355.572911 -130.29296875 345.20703125 C-130.0170458 344.47440252 -129.74112286 343.7417738 -129.45683861 342.9869442 C-128.06769873 339.29836415 -126.67872709 335.60972078 -125.28982544 331.92105103 C-122.5303737 324.59274134 -119.76921268 317.26507567 -117.0078125 309.9375 C-116.74344706 309.2359762 -116.47908161 308.5344524 -116.20670509 307.8116703 C-111.64431503 295.70531768 -107.07451101 283.60177761 -102.5 271.5 C-95.53266911 253.06589239 -88.57557879 234.6279297 -81.625 216.1875 C-81.35223614 215.46385254 -81.07947227 214.74020508 -80.79844284 213.99462891 C-74.08983034 196.19570701 -67.39260555 178.39255226 -60.71484375 160.58203125 C-60.41393829 159.77948599 -60.11303284 158.97694073 -59.80300903 158.15007591 C-56.8872952 150.37312386 -53.97262155 142.5957831 -51.0600729 134.81764507 C-45.33580313 119.53130606 -39.58960094 104.25387731 -33.79281616 88.99487305 C-30.35640599 79.94762869 -26.94733102 70.89050454 -23.55743408 61.82574463 C-18.41397283 48.07484371 -13.25029868 34.33157547 -8.0597229 20.59838867 C-7.43970271 18.95774104 -6.82004967 17.31695462 -6.20077515 15.67602539 C-5.3458849 13.41120443 -4.48958014 11.14692381 -3.6328125 8.8828125 C-3.2526725 7.87488144 -3.2526725 7.87488144 -2.86485291 6.84658813 C-1.9824261 4.51859972 -1.11422939 2.22845879 0 0 Z " fill="#FEFEFE" transform="translate(453,283)"/>
<path d="M0 0 C1.97984068 2.96976102 2.9109286 5.37676668 4.02441406 8.74853516 C4.42007065 9.93891891 4.81572723 11.12930267 5.22337341 12.35575867 C5.65417335 13.66684371 6.08492239 14.97794548 6.515625 16.2890625 C6.96713872 17.6521069 7.41909778 19.01500385 7.87147522 20.37776184 C8.83403681 23.27984119 9.79399088 26.18276427 10.75186157 29.08639526 C13.01045301 35.93209779 15.28264024 42.77329075 17.55426979 49.61467552 C18.05798061 51.13186549 18.56152902 52.64910939 19.06491661 54.16640663 C23.08355633 66.27893772 27.16140801 78.36964773 31.3125 90.4375 C37.40512108 108.16058574 43.33441938 125.93668993 49.22973633 143.72631836 C49.91469579 145.79026174 50.59983047 147.85414698 51.28515625 149.91796875 C51.60994461 150.89777206 51.93473297 151.87757538 52.2693634 152.8870697 C54.44970693 159.4351053 56.74488375 165.92852127 59.18530273 172.3840332 C60 175 60 175 60 179 C20.07 179 -19.86 179 -61 179 C-47.33148789 136.85542098 -47.33148789 136.85542098 -42.37213135 122.46820068 C-40.79039062 117.87839624 -39.21984432 113.28475688 -37.6484375 108.69140625 C-37.33550751 107.77721924 -37.02257751 106.86303223 -36.70016479 105.92114258 C-34.03637168 98.12929141 -31.42399692 90.32099919 -28.83157349 82.50515747 C-24.00123179 67.94278192 -19.12106357 53.3973168 -14.2008667 38.86505127 C-13.45088067 36.64806668 -12.70234993 34.43058918 -11.9553833 32.21258545 C-4.37449675 9.71114554 -4.37449675 9.71114554 0 0 Z " fill="#010101" transform="translate(512,371)"/>
</svg>
